<svg width="16" height="24" viewBox="0 0 16 24" fill="none" xmlns="http://www.w3.org/2000/svg">
<path d="M14.0932 8.09117C13.7839 8.09117 13.449 8.1427 13.1913 8.27154C12.9336 7.4985 12.2379 6.98314 11.4133 6.93161C11.0268 6.88007 10.666 6.98314 10.331 7.18929C9.99605 6.62239 9.42915 6.23587 8.73342 6.18433C8.47574 6.18433 8.21806 6.23587 7.96038 6.31317V4.38057C7.96038 3.29832 7.1358 2.39644 6.10508 2.29336C5.53818 2.24183 5.02282 2.47374 4.6363 2.80872C4.24978 3.19524 4.01787 3.7106 4.01787 4.22596V11.5956L3.45097 11.0803C2.54909 10.3072 1.67298 10.1784 0.951477 10.6164C0.487653 10.8741 0.178437 11.3122 0.0495964 11.8791C-0.0792437 12.446 0.0495965 13.0129 0.358813 13.4767L5.02282 20.5371V22.3924C5.02282 22.7274 5.33204 23.0366 5.66702 23.0366H13.6809C14.0159 23.0366 14.3251 22.7274 14.3251 22.3924V19.9187L15.665 17.445C15.8712 17.0069 16 16.5688 16 16.105V10.1784C16 9.04458 15.1754 8.19424 14.0932 8.09117ZM14.7116 16.105C14.7116 16.3627 14.6343 16.6204 14.5312 16.8523L13.0624 19.4549C13.0109 19.5322 12.9851 19.661 12.9851 19.7641V21.7482H6.31122V20.3567C6.31122 20.2279 6.25969 20.0991 6.23392 20.0218L1.36377 12.8067C1.23493 12.6263 1.18339 12.4202 1.23493 12.1883C1.28646 12.111 1.31223 11.8791 1.54414 11.7502C1.62145 11.6987 1.87913 11.5441 2.57486 12.0852L3.65712 13.0386C3.86326 13.219 3.96634 13.4767 3.96634 13.6828V14.1724C3.96634 14.5074 4.27555 14.8166 4.61054 14.8166C4.94552 14.8166 5.25474 14.5074 5.25474 14.1724V13.0386V12.2656V4.25173C5.25474 4.07136 5.33204 3.91675 5.46088 3.78791C5.58972 3.65907 5.7701 3.58176 5.97624 3.60753C6.31122 3.60753 6.62044 3.94252 6.62044 4.38057V6.69969V8.16847V11.2091C6.62044 11.5441 6.92966 11.8533 7.26464 11.8533C7.59963 11.8533 7.90884 11.5441 7.90884 11.2091V8.19424C7.90884 8.01386 7.98615 7.85926 8.11499 7.73041C8.24383 7.60157 8.4242 7.52427 8.63035 7.55004C8.96533 7.55004 9.27455 7.88502 9.27455 8.32308V8.50346V9.01882V11.3122C9.27455 11.6472 9.58376 11.9564 9.91875 11.9564C10.2537 11.9564 10.5629 11.6472 10.5629 11.3122V9.01882C10.5629 8.83844 10.6403 8.6323 10.7691 8.50346C10.8979 8.37462 11.0783 8.29731 11.2845 8.32308C11.6194 8.32308 11.9287 8.65806 11.9287 9.09612V9.40534V10.2299V12.1883C11.9287 12.5233 12.2379 12.8325 12.5729 12.8325C12.9078 12.8325 13.2171 12.5233 13.2171 12.1883V10.2299C13.2171 10.0495 13.2944 9.89493 13.4232 9.76609C13.552 9.63725 13.7324 9.55994 13.9386 9.58571C14.2735 9.58571 14.5828 9.9207 14.5828 10.3588L14.7116 16.105Z" fill="white"/>
<path d="M9.45494 5.66896C9.78993 5.74627 10.1507 5.48859 10.228 5.1536C10.2795 4.84439 10.3053 4.58671 10.3053 4.27749C10.3311 1.90683 8.42422 0 6.0278 0C3.63137 0 1.75031 1.90683 1.75031 4.27749C1.75031 5.02476 1.95645 5.74627 2.3172 6.39047C2.44604 6.59661 2.65219 6.72545 2.8841 6.72545C3.01294 6.72545 3.09024 6.67392 3.19331 6.64815C3.50253 6.46777 3.63137 6.08125 3.45099 5.77204C3.19331 5.33398 3.06447 4.81862 3.06447 4.30326C3.06447 2.65411 4.40441 1.31417 6.05356 1.31417C7.70272 1.31417 9.04265 2.65411 9.04265 4.30326C9.04265 4.5094 9.04265 4.68978 8.99112 4.92169C8.86228 5.28244 9.06842 5.61743 9.45494 5.66896Z" fill="white"/>
</svg>
