<svg width="119" height="23" viewBox="0 0 119 23" fill="none" xmlns="http://www.w3.org/2000/svg">
<path d="M119 3.2534C119 4.60207 117.929 5.71273 116.58 5.71273C115.232 5.71273 114.121 4.64173 114.121 3.2534C114.121 1.90473 115.192 0.794067 116.541 0.794067C117.889 0.794067 119 1.90473 119 3.2534Z" fill="#00AB52"/>
<path d="M119 15.4311C119 16.7798 117.929 17.8905 116.58 17.8905C115.232 17.8905 114.121 16.8195 114.121 15.4311C114.121 14.0825 115.192 12.9718 116.541 12.9718C117.889 12.9718 119 14.0825 119 15.4311Z" fill="#00AB52"/>
<path d="M1.98336 9.95706C1.86436 9.95706 1.74536 9.95706 1.62636 9.91739C0.634692 9.71906 -0.0396404 8.76706 0.158693 7.73573C0.952026 3.68973 4.48236 0.754395 8.60769 0.754395C9.63902 0.754395 10.472 1.58739 10.472 2.61873C10.472 3.65006 9.63902 4.48306 8.60769 4.48306C6.26736 4.48306 4.24436 6.14906 3.80802 8.44973C3.64936 9.3224 2.89569 9.95706 1.98336 9.95706Z" fill="#00AB52"/>
<path d="M2.41967 13.9237C1.666 13.9237 1.03133 13.4874 0.714 12.8131C0.238 11.7024 0 10.5521 0 9.36207C0 8.80673 0.0396673 8.29107 0.158667 7.73573C0.357001 6.74407 1.309 6.06973 2.34033 6.26807C3.332 6.4664 4.00633 7.4184 3.808 8.44973C3.76833 8.76707 3.72867 9.04473 3.72867 9.36207C3.72867 10.0364 3.84767 10.7107 4.12533 11.3454C4.522 12.2974 4.08567 13.3684 3.17333 13.7651C2.93533 13.8841 2.69733 13.9237 2.41967 13.9237Z" fill="#009560"/>
<path d="M6.0293 17.4541C5.7913 17.4541 5.5533 17.4144 5.3153 17.2954C3.25264 16.4624 1.6263 14.8361 0.713969 12.8131C0.277636 11.9007 0.674303 10.7901 1.58664 10.3537C2.49897 9.91741 3.60964 10.3141 4.04597 11.2264C4.04597 11.2661 4.08564 11.2661 4.08564 11.3057C4.6013 12.4561 5.5533 13.3684 6.70364 13.8444C7.65564 14.2411 8.09197 15.3121 7.6953 16.2641C7.4573 16.9781 6.78297 17.4541 6.0293 17.4541Z" fill="#007278"/>
<path d="M32.2887 1.82541C30.9797 1.07175 29.4723 0.675082 27.9253 0.714748C26.418 0.714748 24.9107 1.11141 23.6413 1.86508C22.372 2.61875 21.301 3.68975 20.587 4.95908C19.8333 6.30775 19.4367 7.77541 19.4763 9.32241V20.6671C19.4763 21.1827 19.6747 21.6984 20.0317 22.0554C20.3887 22.4124 20.8647 22.6107 21.3803 22.5711C22.372 22.6107 23.2447 21.8571 23.2843 20.8654C23.2843 20.7861 23.2843 20.7464 23.2843 20.6671V15.7881C25.8627 18.1681 29.6707 18.5647 32.6457 16.7401C33.8753 15.9864 34.867 14.9154 35.5017 13.6461C36.2157 12.2974 36.5727 10.7901 36.533 9.28275C36.533 7.77541 36.176 6.26808 35.4223 4.91941C34.629 3.65008 33.558 2.57908 32.2887 1.82541ZM32.13 11.9404C31.7333 12.6941 31.1383 13.3287 30.3847 13.7651C28.8377 14.6377 26.9733 14.6377 25.4263 13.7651C24.7123 13.3287 24.0777 12.6941 23.681 11.9404C23.2447 11.1471 23.0463 10.2347 23.0463 9.32241C23.0463 8.41008 23.2447 7.49775 23.681 6.66475C24.9503 4.32441 27.8857 3.45175 30.226 4.76075C30.2657 4.80041 30.3053 4.80041 30.345 4.84008C31.059 5.27641 31.6937 5.91108 32.0903 6.66475C32.5267 7.45808 32.7647 8.37041 32.725 9.32241C32.8043 10.2347 32.5663 11.1471 32.13 11.9404Z" fill="#25215D"/>
<path d="M51.0907 1.78575C49.8213 1.07175 48.3933 0.675085 46.9653 0.714752C45.458 0.675085 43.9507 1.07175 42.6417 1.82542C41.3723 2.53942 40.341 3.61042 39.6667 4.91942C38.9527 6.26809 38.5957 7.81508 38.5957 9.36208C38.556 10.9091 38.9527 12.4164 39.7063 13.7651C40.46 15.0741 41.531 16.1054 42.84 16.8194C44.2283 17.5731 45.7753 17.9301 47.362 17.9301C48.3537 17.9301 49.385 17.7318 50.337 17.3748C51.289 17.0971 52.1617 16.6211 52.955 16.0261C53.3517 15.7484 53.5897 15.3121 53.5897 14.8361C53.55 13.8841 52.717 13.1304 51.765 13.1304C51.3287 13.1304 50.8923 13.2494 50.5353 13.5271C50.099 13.8444 49.5833 14.0824 49.0677 14.2808C47.2827 14.9154 45.2993 14.5584 43.792 13.4081C42.959 12.7338 42.364 11.8214 42.126 10.7504H52.8757C53.3517 10.7504 53.788 10.5918 54.1053 10.2744C54.4227 9.95709 54.621 9.52075 54.621 9.04475C54.6607 7.57709 54.3433 6.06975 53.7087 4.76075C53.193 3.49142 52.241 2.46008 51.0907 1.78575ZM42.245 7.57709C42.483 6.62509 42.9987 5.75242 43.7127 5.11775C44.625 4.36408 45.7753 3.96742 46.9653 4.04675C48.0363 4.00708 49.0677 4.36408 49.861 5.11775C50.5353 5.79208 50.9717 6.66475 51.17 7.61675H42.245V7.57709Z" fill="#25215D"/>
<path d="M69.496 1.62707C68.306 0.992405 66.997 0.675072 65.6483 0.714738C64.6567 0.714738 63.665 0.873404 62.713 1.27007C62.0783 1.50807 61.4833 1.86507 60.9677 2.26174C60.8883 1.9444 60.7297 1.62707 60.4917 1.38907C59.738 0.67507 58.548 0.67507 57.7547 1.38907C57.3977 1.74607 57.1993 2.26174 57.1993 2.7774V15.9467C57.1993 17.0177 58.1117 17.8507 59.1827 17.8507C59.6587 17.8507 60.1347 17.6524 60.4917 17.2954C60.8487 16.9384 61.047 16.4624 61.0073 15.9467V7.61674C61.0073 7.02174 61.166 6.42674 61.523 5.91107C61.88 5.3954 62.3957 4.95907 62.951 4.6814C63.5857 4.36407 64.2997 4.2054 65.0533 4.2054C66.2037 4.16574 67.354 4.5624 68.187 5.31607C68.9407 6.06974 69.3373 7.1804 69.3373 8.64807V15.9071C69.3373 16.9384 70.1703 17.8111 71.2413 17.8111C72.2727 17.8111 73.1453 16.9781 73.1453 15.9071V8.6084C73.185 7.14074 72.8677 5.67307 72.1933 4.36407C71.5983 3.21374 70.6463 2.26174 69.496 1.62707Z" fill="#25215D"/>
<path d="M91.392 1.3494C90.6383 0.635401 89.4483 0.635401 88.655 1.3494C88.298 1.7064 88.0997 2.22207 88.0997 2.73773V11.0677C88.0997 11.6627 87.941 12.2577 87.584 12.7734C87.227 13.2891 86.7114 13.7254 86.156 14.0031C85.5214 14.3204 84.8073 14.4791 84.0537 14.4791C82.9033 14.5187 81.753 14.1221 80.92 13.3684C80.1267 12.6544 79.7697 11.5041 79.7697 10.0364V2.69807C79.7697 1.66674 78.9367 0.794067 77.8657 0.794067C76.8343 0.794067 75.9617 1.62707 75.9617 2.69807V9.95707C75.922 11.4247 76.2393 12.8924 76.9137 14.2411C77.5087 15.3914 78.4607 16.3434 79.611 16.9781C80.801 17.6127 82.11 17.9301 83.4587 17.8904C84.4503 17.8904 85.442 17.7317 86.394 17.3351C87.0287 17.0971 87.6237 16.7401 88.179 16.3434C88.2583 16.6607 88.417 16.9781 88.655 17.2161C89.4087 17.9301 90.6383 17.9301 91.392 17.2161C91.749 16.8591 91.9077 16.3831 91.9077 15.8674V2.69807C91.9474 2.1824 91.749 1.7064 91.392 1.3494Z" fill="#25215D"/>
<path d="M110.63 4.95909C109.916 3.65009 108.845 2.57909 107.536 1.86509C106.227 1.11142 104.72 0.714754 103.173 0.754421C101.666 0.754421 100.158 1.11142 98.8493 1.90475C97.58 2.65842 96.509 3.72942 95.795 4.99875C95.0413 6.34742 94.6447 7.81509 94.6447 9.36209V20.7068C94.6447 21.2224 94.843 21.7381 95.2 22.0951C95.557 22.4521 96.033 22.6504 96.5486 22.6108C97.5403 22.6504 98.413 21.8968 98.4527 20.8654C98.4527 20.8258 98.4527 20.7464 98.4527 20.7068V15.7881C99.008 16.3434 99.6823 16.7798 100.396 17.1368C102.776 18.2474 105.553 18.1284 107.814 16.7798C109.044 16.0261 110.035 14.9551 110.67 13.6858C111.384 12.3371 111.741 10.8298 111.701 9.32242C111.781 7.77542 111.384 6.26809 110.63 4.95909ZM107.417 11.9404C107.021 12.6941 106.426 13.3288 105.672 13.7651C104.165 14.6378 102.261 14.6378 100.753 13.7651C100.039 13.3288 99.4047 12.6941 99.008 11.9404C98.5717 11.1471 98.3337 10.2348 98.3733 9.32242C98.3733 8.41009 98.5717 7.49776 99.008 6.66475C99.4047 5.91109 99.9997 5.27642 100.753 4.84009C102.3 3.96742 104.165 3.96742 105.712 4.84009C106.465 5.27642 107.06 5.91109 107.457 6.66475C107.893 7.45809 108.131 8.37042 108.092 9.32242C108.131 10.2348 107.893 11.1471 107.417 11.9404Z" fill="#25215D"/>
<path d="M8.60771 17.9697C7.49704 17.9697 6.38637 17.7317 5.35504 17.3351C4.40304 16.9384 3.96671 15.8674 4.36337 14.9154C4.76004 13.9634 5.83104 13.5271 6.78304 13.9237C9.28204 14.9551 12.138 13.7651 13.1297 11.2661C14.161 8.76707 12.971 5.91107 10.472 4.91941C9.87704 4.68141 9.24237 4.56241 8.60771 4.56241C7.57637 4.56241 6.74337 3.72941 6.74337 2.69807C6.74337 1.66674 7.57637 0.83374 8.60771 0.83374C13.3677 0.83374 17.2154 4.68141 17.2154 9.44141C17.1757 14.1221 13.328 17.9301 8.60771 17.9697Z" fill="#27235E"/>
</svg>
